<svg xmlns="http://www.w3.org/2000/svg" viewBox="0 0 600 360" width="100%" height="100%">
  <defs>
    <linearGradient id="ecomGrad" x1="0%" y1="0%" x2="100%" y2="100%">
      <stop offset="0%" stop-color="#3b82f6" />
      <stop offset="100%" stop-color="#10b981" />
    </linearGradient>
  </defs>
  <rect width="600" height="360" fill="#0f172a" rx="16" />
  <rect x="20" y="20" width="560" height="320" rx="12" fill="#1e293b" stroke="rgba(255,255,255,0.08)" stroke-width="2" />
  
  <!-- Browser Header -->
  <circle cx="50" cy="45" r="6" fill="#ef4444" />
  <circle cx="68" cy="45" r="6" fill="#f59e0b" />
  <circle cx="86" cy="45" r="6" fill="#10b981" />
  <rect x="115" y="36" width="280" height="18" rx="6" fill="#0f172a" opacity="0.6" />
  <text x="125" y="50" fill="#94a3b8" font-family="monospace" font-size="11">https://shopflow.dev</text>

  <!-- Store Cards Mockup -->
  <g transform="translate(60, 90)">
    <rect width="135" height="180" rx="10" fill="#0f172a" stroke="rgba(255,255,255,0.05)" />
    <rect x="15" y="15" width="105" height="90" rx="8" fill="url(#ecomGrad)" opacity="0.7" />
    <rect x="15" y="120" width="80" height="12" rx="4" fill="#94a3b8" />
    <rect x="15" y="142" width="45" height="16" rx="4" fill="#10b981" />
  </g>
  <g transform="translate(230, 90)">
    <rect width="135" height="180" rx="10" fill="#0f172a" stroke="#3b82f6" stroke-width="2" />
    <rect x="15" y="15" width="105" height="90" rx="8" fill="#3b82f6" opacity="0.8" />
    <rect x="15" y="120" width="90" height="12" rx="4" fill="#ffffff" />
    <rect x="15" y="142" width="55" height="16" rx="4" fill="#60a5fa" />
  </g>
  <g transform="translate(400, 90)">
    <rect width="135" height="180" rx="10" fill="#0f172a" stroke="rgba(255,255,255,0.05)" />
    <rect x="15" y="15" width="105" height="90" rx="8" fill="#f59e0b" opacity="0.7" />
    <rect x="15" y="120" width="75" height="12" rx="4" fill="#94a3b8" />
    <rect x="15" y="142" width="45" height="16" rx="4" fill="#f59e0b" />
  </g>
</svg>
